<svg xmlns="http://www.w3.org/2000/svg" viewBox="0 0 515.78 304.4">
  <defs>
    <style>
      .cls-1, .cls-8 {
        fill: none;
      }

      .cls-1 {
        stroke: #cccccb;
        stroke-linecap: square;
        stroke-linejoin: bevel;
        stroke-width: 0.34px;
        stroke-dasharray: 0.34 0.67;
      }

      .cls-2 {
        font-size: 7px;
      }

      .cls-2, .cls-3, .cls-9 {
        fill: #010101;
      }

      .cls-2, .cls-3 {
        font-family: Oswald-Regular, Oswald;
      }

      .cls-3 {
        font-size: 9px;
      }

      .cls-4 {
        letter-spacing: -0.01em;
      }

      .cls-5 {
        letter-spacing: -0.02em;
      }

      .cls-6 {
        letter-spacing: -0.01em;
      }

      .cls-7 {
        letter-spacing: 0em;
      }

      .cls-8 {
        stroke: #706f6f;
        stroke-miterlimit: 10;
      }

      .cls-10 {
        fill: #ce1a1c;
      }
    </style>
  </defs>
  <title>parttime</title>
  <g id="chart-grid">
    <g id="Linee">
      <line class="cls-1" x1="84.88" y1="289.21" x2="84.88" y2="0.17"/>
      <line class="cls-1" x1="106.88" y1="289.21" x2="106.88" y2="0.17"/>
      <line class="cls-1" x1="129.88" y1="289.21" x2="129.88" y2="0.17"/>
      <line class="cls-1" x1="151.88" y1="289.21" x2="151.88" y2="0.17"/>
      <line class="cls-1" x1="173.88" y1="289.21" x2="173.88" y2="0.17"/>
      <line class="cls-1" x1="195.88" y1="289.21" x2="195.88" y2="0.17"/>
      <line class="cls-1" x1="217.88" y1="289.21" x2="217.88" y2="0.17"/>
      <line class="cls-1" x1="239.88" y1="289.21" x2="239.88" y2="0.17"/>
      <line class="cls-1" x1="261.88" y1="289.21" x2="261.88" y2="0.17"/>
      <line class="cls-1" x1="283.88" y1="289.21" x2="283.88" y2="0.17"/>
      <line class="cls-1" x1="305.88" y1="289.21" x2="305.88" y2="0.17"/>
      <line class="cls-1" x1="328.88" y1="289.21" x2="328.88" y2="0.17"/>
      <line class="cls-1" x1="351.88" y1="289.21" x2="351.88" y2="0.17"/>
      <line class="cls-1" x1="373.88" y1="289.21" x2="373.88" y2="0.17"/>
      <line class="cls-1" x1="395.88" y1="289.21" x2="395.88" y2="0.17"/>
      <line class="cls-1" x1="417.88" y1="289.21" x2="417.88" y2="0.17"/>
      <line class="cls-1" x1="439.88" y1="289.21" x2="439.88" y2="0.17"/>
      <line class="cls-1" x1="462.88" y1="289.21" x2="462.88" y2="0.17"/>
      <line class="cls-1" x1="484.88" y1="289.21" x2="484.88" y2="0.17"/>
      <line class="cls-1" x1="506.88" y1="289.21" x2="506.88" y2="0.17"/>
    </g>
    <text class="cls-2" transform="translate(81.16 301.43)">0M</text>
    <text class="cls-2" transform="translate(101.16 301.43)">0,5M</text>
    <text class="cls-2" transform="translate(125.37 301.43)">1M</text>
    <text class="cls-2" transform="translate(145.41 301.43)">1,5M</text>
    <text class="cls-2" transform="translate(169.66 301.43)">2M</text>
    <text class="cls-2" transform="translate(189.41 301.43)">2,5M</text>
    <text class="cls-2" transform="translate(213.16 301.43)">3M</text>
    <text class="cls-2" transform="translate(233.16 301.43)">3,5M</text>
    <text class="cls-2" transform="translate(257.16 301.43)">4M</text>
    <text class="cls-2" transform="translate(257.16 301.43)">4M</text>
    <text class="cls-2" transform="translate(277.41 301.43)">4,5M</text>
    <text class="cls-2" transform="translate(301.38 301.43)">5M</text>
    <text class="cls-2" transform="translate(322.16 301.43)">5,5M</text>
    <text class="cls-2" transform="translate(347.16 301.43)">6M</text>
    <text class="cls-2" transform="translate(368.16 301.43)">6,5M</text>
    <text class="cls-2" transform="translate(393.16 301.43)">7M</text>
    <text class="cls-2" transform="translate(413.16 301.43)">7,5M</text>
    <text class="cls-2" transform="translate(437.16 301.43)">8M</text>
    <text class="cls-2" transform="translate(457.16 301.43)">8,5M</text>
    <text class="cls-2" transform="translate(481.16 301.43)">9M</text>
    <text class="cls-2" transform="translate(501.16 301.43)">9,5M</text>
    <g id="paesi">
      <text class="cls-3" transform="translate(0.38 15.81)">Austria</text>
      <text class="cls-3" transform="translate(0 25.45)">Belgium</text>
      <text class="cls-3" transform="translate(0 35.14)">Bulgaria</text>
      <text class="cls-3" transform="translate(0 44.96)">Cro<tspan class="cls-4" x="11.34" y="0">a</tspan><tspan x="15.09" y="0">tia</tspan></text>
      <text class="cls-3" transform="translate(0 54.77)">Cyprus</text>
      <text class="cls-3" transform="translate(0 64.55)">Czech Republic</text>
      <text class="cls-3" transform="translate(0 74.32)">Denmark</text>
      <text class="cls-3" transform="translate(0 84.02)"><tspan class="cls-5">E</tspan><tspan x="3.47" y="0">stonia</tspan></text>
      <text class="cls-3" transform="translate(0 93.68)">Finland</text>
      <text class="cls-3" transform="translate(0 103.36)"><tspan class="cls-6">F</tspan><tspan x="3.39" y="0">rance</tspan></text>
      <text class="cls-3" transform="translate(0 113.09)">Germany</text>
      <text class="cls-3" transform="translate(0 122.85)">Hungary</text>
      <text class="cls-3" transform="translate(0 132.56)">Iceland</text>
      <text class="cls-3" transform="translate(0 142.28)">Ireland</text>
      <text class="cls-3" transform="translate(0 151.98)">Italy</text>
      <text class="cls-3" transform="translate(0 161.68)">L<tspan class="cls-4" x="3.57" y="0">a</tspan><tspan x="7.33" y="0">tvia</tspan></text>
      <text class="cls-3" transform="translate(0 171.4)">Lithuania</text>
      <text class="cls-3" transform="translate(0 181.15)">Luxembourg</text>
      <text class="cls-3" transform="translate(0 190.85)">Malta</text>
      <text class="cls-3" transform="translate(0 200.57)">Netherlands</text>
      <text class="cls-3" transform="translate(0 210.28)">Norway</text>
      <text class="cls-3" transform="translate(0 219.99)"><tspan class="cls-7">P</tspan><tspan x="4.27" y="0">oland</tspan></text>
      <text class="cls-3" transform="translate(0 229.72)"><tspan class="cls-7">P</tspan><tspan x="4.27" y="0">ortugal</tspan></text>
      <text class="cls-3" transform="translate(0 239.36)">Romania</text>
      <text class="cls-3" transform="translate(0 249.09)">Slovakia</text>
      <text class="cls-3" transform="translate(0 258.96)">Slovenia</text>
      <text class="cls-3" transform="translate(0 268.77)">Spain</text>
      <text class="cls-3" transform="translate(0 278.55)">Sweden</text>
      <text class="cls-3" transform="translate(0 288.32)">United Kingdom</text>
    </g>
    <g id="gap">
      <line id="gapaustria" class="cls-8" x1="96.24" y1="12.64" x2="127.18" y2="12.64"/>
      <line id="gapbelgium" class="cls-8" x1="94.87" y1="22.44" x2="125.8" y2="22.44"/>
      <line id="gapczech" class="cls-8" x1="89.9" y1="61.58" x2="95.31" y2="61.58"/>
      <line id="gapdenmark" class="cls-8" x1="100.41" y1="71.31" x2="105.83" y2="71.31"/>
      <line id="gapfrance" class="cls-8" x1="134.29" y1="100.39" x2="253.58" y2="100.39"/>
      <line id="gapgermany" class="cls-8" x1="192.95" y1="110.12" x2="487.82" y2="110.12"/>
      <line id="gapireland" class="cls-8" x1="92.6" y1="139.25" x2="98.02" y2="139.25"/>
      <line id="gapitaly" class="cls-8" x1="136.24" y1="149.01" x2="222.23" y2="149.01"/>
      <line id="gapnether" class="cls-8" x1="139.24" y1="197.69" x2="216.36" y2="197.69"/>
      <line id="gappoland" class="cls-8" x1="102.58" y1="217.02" x2="121.87" y2="217.02"/>
      <line id="gapspain" class="cls-8" x1="123.68" y1="265.76" x2="175.19" y2="265.76"/>
      <line id="gapsweden" class="cls-8" x1="102.58" y1="275.58" x2="125.97" y2="275.58"/>
      <line id="gapfrance-2" data-name="gapfrance" class="cls-8" x1="184.58" y1="285.35" x2="361.76" y2="285.35"/>
    </g>
  </g>
  <g id="Livello_1" data-name="Livello 1">
    <circle id="austriamale" class="cls-9" cx="96.24" cy="12.64" r="2.94"/>
    <circle id="austriafemale" class="cls-10" cx="127.24" cy="12.64" r="2.94"/>
    <circle id="belgiummale" class="cls-9" cx="95.4" cy="22.44" r="2.94"/>
    <circle id="belgiumfemale" class="cls-10" cx="124.24" cy="22.44" r="2.94"/>
    <circle id="bulgmale" class="cls-9" cx="88.32" cy="32.13" r="2.94"/>
    <circle id="bulgfemale" class="cls-10" cx="88.65" cy="32.13" r="2.94"/>
    <circle id="croatiamale" class="cls-9" cx="88.99" cy="41.94" r="2.94"/>
    <circle id="croatiafemale" class="cls-10" cx="89.67" cy="41.94" r="2.94"/>
    <circle id="cyprusmale" class="cls-9" cx="87.3" cy="50.38" r="2.94"/>
    <circle id="cyprusfemale" class="cls-10" cx="87.98" cy="50.38" r="2.94"/>
    <circle id="czechmale" class="cls-9" cx="88.99" cy="61.54" r="2.94"/>
    <circle id="czechfemale" class="cls-10" cx="96.24" cy="61.54" r="2.94"/>
    <circle id="denmarkmale" class="cls-9" cx="98.1" cy="71.31" r="2.94"/>
    <circle id="denmarkfemale" class="cls-10" cx="106.87" cy="71.31" r="2.94"/>
    <circle id="estoniamale" class="cls-9" cx="87.54" cy="81" r="2.94"/>
    <circle id="estoniafemale" class="cls-10" cx="88.99" cy="81" r="2.94"/>
    <circle id="finlandmale" class="cls-9" cx="91.93" cy="90.67" r="2.94"/>
    <circle id="finlandfemale" class="cls-10" cx="96.24" cy="90.67" r="2.94"/>
    <circle id="francemale" class="cls-9" cx="134.29" cy="100.35" r="2.94"/>
    <circle id="francefemale" class="cls-10" cx="253.58" cy="100.35" r="2.94"/>
    <circle id="germanymale" class="cls-9" cx="192.95" cy="110.08" r="2.94"/>
    <circle id="germanyfemale" class="cls-10" cx="487.82" cy="110.08" r="2.94"/>
    <circle id="hungmale" class="cls-9" cx="88.65" cy="119.84" r="2.94"/>
    <circle id="hungfemale" class="cls-10" cx="91.25" cy="119.84" r="2.94"/>
    <circle id="icelandmale" class="cls-9" cx="85.96" cy="129.55" r="2.94"/>
    <circle id="icelandfemale" class="cls-10" cx="87.63" cy="129.55" r="2.94"/>
    <circle id="irelandmale" class="cls-9" cx="91.25" cy="139.26" r="2.94"/>
    <circle id="irelandfemale" class="cls-10" cx="100.18" cy="139.26" r="2.94"/>
    <circle id="italymale" class="cls-9" cx="137.23" cy="148.97" r="2.94"/>
    <circle id="italyfemale" class="cls-10" cx="222.23" cy="148.97" r="2.94"/>
    <circle id="latviamale" class="cls-9" cx="87.54" cy="158.67" r="2.94"/>
    <circle id="latviafemale" class="cls-10" cx="90.48" cy="158.67" r="2.94"/>
    <circle id="lithmale" class="cls-9" cx="88.65" cy="168.39" r="2.94"/>
    <circle id="lithfemale" class="cls-10" cx="90.34" cy="168.39" r="2.94"/>
    <circle id="luxemale" class="cls-9" cx="85.62" cy="178.13" r="2.94"/>
    <circle id="luxefemale" class="cls-10" cx="87.64" cy="178.13" r="2.94"/>
    <circle id="maltamale" class="cls-9" cx="84.88" cy="187.84" r="2.94"/>
    <circle id="maltafemale" class="cls-10" cx="85.72" cy="187.84" r="2.94"/>
    <circle id="nethemale" class="cls-9" cx="140.17" cy="197.56" r="2.94"/>
    <circle id="nethefemale" class="cls-10" cx="216.36" cy="197.56" r="2.94"/>
    <circle id="norwaymale" class="cls-9" cx="94.87" cy="208.5" r="2.94"/>
    <circle id="norwayfemale" class="cls-10" cx="104.85" cy="208.5" r="2.94"/>
    <circle id="polandmale" class="cls-9" cx="101.76" cy="216.98" r="2.94"/>
    <circle id="polandfemale" class="cls-10" cx="123.03" cy="216.98" r="2.94"/>
    <circle id="portugalmale" class="cls-9" cx="95.16" cy="226.71" r="2.94"/>
    <circle id="portugalfemale" class="cls-10" cx="100.18" cy="226.71" r="2.94"/>
    <circle id="romaniafemale" class="cls-10" cx="100.91" cy="236.35" r="2.94"/>
    <circle id="romaniamale" class="cls-9" cx="101.91" cy="236.35" r="2.94"/>
    <circle id="slovakmale" class="cls-9" cx="87.82" cy="246.08" r="2.94"/>
    <circle id="slovakfemale" class="cls-10" cx="88.89" cy="246.08" r="2.94"/>
    <circle id="slovenmale" class="cls-9" cx="85.96" cy="255.95" r="2.94"/>
    <circle id="slovenfemale" class="cls-10" cx="87.82" cy="255.95" r="2.94"/>
    <circle id="spainmale" class="cls-9" cx="124.38" cy="265.76" r="2.94"/>
    <circle id="spainfemale" class="cls-10" cx="175.17" cy="265.76" r="2.94"/>
    <circle id="swedenmale" class="cls-9" cx="101.76" cy="275.53" r="2.94"/>
    <circle id="swedenfemale" class="cls-10" cx="125.97" cy="275.53" r="2.94"/>
    <circle id="ukmale" class="cls-9" cx="184.26" cy="285.31" r="2.94"/>
    <circle id="ukfemale" class="cls-10" cx="361.76" cy="285.31" r="2.94"/>
  </g>
</svg>
